<svg xmlns="http://www.w3.org/2000/svg" width="760" height="430" viewBox="0 0 760 430" role="img" aria-labelledby="title desc">
  <title id="title">论文状态统计饼图</title>
  <desc id="desc">待投稿14，需修订3，内审中38，外审中7。</desc>
  <rect width="760" height="430" fill="#ffffff"/>
  <text x="30" y="34" fill="#111827" font-family="Arial, Microsoft YaHei, sans-serif" font-size="22" font-weight="700">论文状态统计</text>
  <text x="30" y="58" fill="#6b7280" font-family="Arial, Microsoft YaHei, sans-serif" font-size="13">共 62 篇/项；不含已接受论文</text>

  <g font-family="Arial, Microsoft YaHei, sans-serif">
    <path d="M 258 232 L 258 100 A 132 132 0 0 1 388.478 212.012 Z" fill="#64748b" stroke="#ffffff" stroke-width="3"/>
    <text x="311.413" y="169.782" fill="#ffffff" font-size="18" font-weight="800" text-anchor="middle" dominant-baseline="middle">14</text>
    <path d="M 258 232 L 388.478 212.012 A 132 132 0 0 1 388.478 251.988 Z" fill="#f43f5e" stroke="#ffffff" stroke-width="3"/>
    <text x="340" y="232" fill="#ffffff" font-size="18" font-weight="800" text-anchor="middle" dominant-baseline="middle">3</text>
    <path d="M 258 232 L 388.478 251.988 A 132 132 0 1 1 172.019 131.844 Z" fill="#f59e0b" stroke="#ffffff" stroke-width="3"/>
    <text x="218.205" y="303.696" fill="#ffffff" font-size="18" font-weight="800" text-anchor="middle" dominant-baseline="middle">38</text>
    <path d="M 258 232 L 172.019 131.844 A 132 132 0 0 1 258 100 Z" fill="#22c55e" stroke="#ffffff" stroke-width="3"/>
    <text x="229.521" y="155.104" fill="#ffffff" font-size="18" font-weight="800" text-anchor="middle" dominant-baseline="middle">7</text>
    <circle cx="258" cy="232" r="58" fill="#ffffff"/>
    <text x="258" y="224" fill="#6b7280" font-size="13" font-weight="700" text-anchor="middle">总计</text>
    <text x="258" y="254" fill="#111827" font-size="28" font-weight="700" text-anchor="middle">62</text>
  </g>

  <g font-family="Arial, Microsoft YaHei, sans-serif">
    <rect x="492" y="110" width="24" height="24" rx="5" fill="#64748b"/>
    <text x="528" y="126" fill="#111827" font-size="15" font-weight="700">待投稿</text>
    <text x="528" y="148" fill="#4b5563" font-size="13">14 篇</text>
    <rect x="492" y="168" width="24" height="24" rx="5" fill="#f43f5e"/>
    <text x="528" y="184" fill="#111827" font-size="15" font-weight="700">需修订</text>
    <text x="528" y="206" fill="#4b5563" font-size="13">3 篇</text>
    <rect x="492" y="226" width="24" height="24" rx="5" fill="#f59e0b"/>
    <text x="528" y="242" fill="#111827" font-size="15" font-weight="700">内审中</text>
    <text x="528" y="264" fill="#4b5563" font-size="13">38 篇</text>
    <rect x="492" y="284" width="24" height="24" rx="5" fill="#22c55e"/>
    <text x="528" y="300" fill="#111827" font-size="15" font-weight="700">外审中</text>
    <text x="528" y="322" fill="#4b5563" font-size="13">7 篇</text>
  </g>
</svg>